HIERARCHY
ROOT Hips
{
 OFFSET 0.000000 0.000000 0.000000
 CHANNELS 6 Xposition Yposition Zposition Yrotation Xrotation Zrotation
 JOINT Chest
 {
  OFFSET 0.000000 9.585900 0.002600
  CHANNELS 3 Yrotation Xrotation Zrotation
  JOINT Chest2
  {
   OFFSET 0.000000 9.601200 -0.005300
   CHANNELS 3 Yrotation Xrotation Zrotation
   JOINT Chest3
   {
    OFFSET 0.000000 9.561800 0.000000
    CHANNELS 3 Yrotation Xrotation Zrotation
    JOINT Chest4
    {
     OFFSET 0.000000 9.552100 0.000000
     CHANNELS 3 Yrotation Xrotation Zrotation
     JOINT Neck
     {
      OFFSET 0.000000 14.453000 0.000000
      CHANNELS 3 Yrotation Xrotation Zrotation
      JOINT Head
      {
       OFFSET 0.000000 8.936500 -0.011300
       CHANNELS 3 Yrotation Xrotation Zrotation
       End Site
       {
        OFFSET 0.000000 17.073600 -0.006000
       }
      }
     }
     JOINT RightCollar
     {
      OFFSET -2.921100 9.558500 0.000000
      CHANNELS 3 Yrotation Xrotation Zrotation
      JOINT RightShoulder
      {
       OFFSET -13.519700 0.000000 0.000000
       CHANNELS 3 Yrotation Xrotation Zrotation
       JOINT RightElbow
       {
        OFFSET 0.000000 -29.696600 0.000000
        CHANNELS 3 Yrotation Xrotation Zrotation
        JOINT RightWrist
        {
         OFFSET 0.000000 -24.004700 0.000000
         CHANNELS 3 Yrotation Xrotation Zrotation
         End Site
         {
          OFFSET 0.000000 -17.728500 0.000000
         }
        }
       }
      }
     }
     JOINT LeftCollar
     {
      OFFSET 2.921100 9.558500 0.000000
      CHANNELS 3 Yrotation Xrotation Zrotation
      JOINT LeftShoulder
      {
       OFFSET 13.519700 0.000000 0.000000
       CHANNELS 3 Yrotation Xrotation Zrotation
       JOINT LeftElbow
       {
        OFFSET 0.000000 -29.696600 0.000000
        CHANNELS 3 Yrotation Xrotation Zrotation
        JOINT LeftWrist
        {
         OFFSET 0.000000 -24.004700 0.000000
         CHANNELS 3 Yrotation Xrotation Zrotation
         End Site
         {
          OFFSET 0.000000 -17.728500 0.000000
         }
        }
       }
      }
     }
    }
   }
  }
 }
 JOINT RightHip
 {
  OFFSET -7.771700 -0.012900 -0.001300
  CHANNELS 3 Yrotation Xrotation Zrotation
  JOINT RightKnee
  {
   OFFSET 0.000000 -40.869800 0.001200
   CHANNELS 3 Yrotation Xrotation Zrotation
   JOINT RightAnkle
   {
    OFFSET 0.000000 -39.717900 0.002100
    CHANNELS 3 Yrotation Xrotation Zrotation
    JOINT RightToe
    {
     OFFSET 0.000000 -4.965400 11.033500
     CHANNELS 3 Yrotation Xrotation Zrotation
     End Site
     {
      OFFSET 0.000000 -1.423100 5.872300
     }
    }
   }
  }
 }
 JOINT LeftHip
 {
  OFFSET 7.771700 -0.012900 -0.001300
  CHANNELS 3 Yrotation Xrotation Zrotation
  JOINT LeftKnee
  {
   OFFSET 0.000000 -40.869800 0.001200
   CHANNELS 3 Yrotation Xrotation Zrotation
   JOINT LeftAnkle
   {
    OFFSET 0.000000 -39.717900 0.002100
    CHANNELS 3 Yrotation Xrotation Zrotation
    JOINT LeftToe
    {
     OFFSET 0.000000 -4.965400 11.033500
     CHANNELS 3 Yrotation Xrotation Zrotation
     End Site
     {
      OFFSET 0.000000 -1.423100 5.872300
     }
    }
   }
  }
 }
}
MOTION
Frames: 11
Frame Time: 0.008333
0.000000 85.388000 0.000000 0.000000 -5.767877 0.000000 0.000000 11.653817 0.000000 0.000000 -5.885947 0.000000 0.000000 -0.000000 0.000000 0.000000 -0.000000 0.000000 0.000000 12.528835 0.000000 0.000000 0.711642 0.000000 0.000000 -0.000000 0.000000 0.000000 0.000000 -90.000000 0.000000 -2.309062 0.000000 0.000000 2.309062 0.000000 0.000000 -0.000000 0.000000 0.000000 -0.000000 90.000000 0.000000 -2.309062 0.000000 0.000000 2.309062 0.000000 0.000000 8.520406 0.000000 0.000000 1.905762 0.000000 -0.000000 -4.658285 0.000000 0.000000 -0.000000 0.000000 0.000000 8.520406 0.000000 0.000000 1.905762 0.000000 -0.000000 -4.658285 0.000000 0.000000 -0.000000 0.000000
-83.811175 61.973451 17.872154 172.700978 -45.387983 -1.495086 4.502181 26.304316 1.624020 0.680151 4.414871 0.224916 1.092321 7.038629 0.390707 3.614122 21.415111 1.653790 4.663325 11.412384 2.634978 7.777136 -14.617207 3.071516 5.849042 3.484563 3.946385 -1.171378 -9.181117 -19.995571 -109.672227 -51.780611 147.118697 -3.061245 -3.644770 -9.065314 -8.289621 0.828034 -0.205365 -1.846129 -8.061253 19.089627 140.322757 -63.267047 -164.687625 2.996464 -4.221255 -1.705189 2.189273 -21.940097 -2.632976 -0.143908 60.335985 -2.816147 3.621408 -4.835601 10.392695 0.042775 -0.181419 0.022829 -1.252231 -18.743613 8.794771 20.701647 77.790184 21.362434 -0.147982 -12.000841 -2.974344 0.246663 0.654561 0.118028
-83.805798 61.970639 17.870097 172.670856 -45.340496 -1.494285 4.534351 26.316531 1.657489 0.678220 4.383369 0.221006 1.092178 7.034139 0.385736 3.613122 21.413943 1.656665 4.645786 11.401528 2.647596 7.767862 -14.631875 3.072927 5.867697 3.422263 3.948285 -0.901439 -9.103858 -20.053689 -109.171061 -51.885747 146.839154 -2.811156 -3.346716 -8.346905 -8.298559 0.747069 -0.228933 -2.107526 -7.955234 19.181459 138.942298 -63.241878 -163.863813 3.009842 -4.261761 -2.102884 2.203341 -21.993859 -2.606944 -0.142038 60.341499 -2.816038 3.621675 -4.832343 10.386926 0.038629 -0.183090 0.026569 -1.238924 -18.793039 8.827080 20.703737 77.801170 21.355370 -0.124501 -12.002915 -2.967391 0.226804 0.649717 0.110724
-83.802206 61.970470 17.864098 172.664467 -45.311699 -1.495492 4.541226 26.301740 1.664338 0.681116 4.421847 0.228881 1.089309 7.002589 0.381409 3.613779 21.416162 1.650976 4.625468 11.394150 2.660077 7.669399 -14.639856 3.141122 5.885579 3.360896 3.960225 -0.664354 -9.042015 -20.103181 -108.618610 -51.978245 146.534681 -2.555966 -3.042525 -7.603301 -8.311847 0.671963 -0.239878 -2.340201 -7.872363 19.269200 137.488901 -63.188548 -162.985701 3.025669 -4.277977 -2.478506 2.208247 -22.025121 -2.599469 -0.148838 60.352348 -2.821516 3.632688 -4.836025 10.371920 0.029455 -0.184913 0.036833 -1.233879 -18.819304 8.840994 20.712611 77.807745 21.356571 -0.099950 -12.014961 -2.974568 0.234393 0.654061 0.116300
-83.799436 61.970584 17.856917 172.662401 -45.282993 -1.493058 4.542419 26.286715 1.665408 0.680769 4.419848 0.229495 1.089524 7.008142 0.386168 3.611366 21.425583 1.657676 4.578426 11.396089 2.674370 7.627270 -14.644151 3.152968 5.908394 3.298720 3.957975 -0.452703 -8.993022 -20.144010 -108.077761 -52.065612 146.250084 -2.296915 -2.744196 -6.870541 -8.324599 0.596519 -0.260735 -2.549568 -7.813745 19.353201 135.981791 -63.114343 -162.068842 3.037246 -4.274364 -2.834876 2.212561 -22.054931 -2.596322 -0.157022 60.365063 -2.833228 3.632948 -4.845067 10.371694 0.037002 -0.182641 0.036489 -1.227757 -18.843468 8.852101 20.670380 77.815108 21.310507 -0.097645 -12.030096 -2.979288 0.242299 0.660296 0.124271
-83.796776 61.972025 17.847880 172.666276 -45.264065 -1.492105 4.541359 26.292816 1.672431 0.677908 4.405968 0.223616 1.089831 7.011425 0.391907 3.604891 21.416761 1.650106 4.553043 11.404990 2.684838 7.572177 -14.631290 3.172441 5.937524 3.256432 3.973328 -0.257403 -8.952952 -20.179906 -107.609156 -52.151863 146.019450 -2.036294 -2.459403 -6.168661 -8.329903 0.568948 -0.268016 -2.748146 -7.796167 19.429480 134.460477 -63.027487 -161.136540 3.036086 -4.254825 -3.182407 2.215979 -22.072860 -2.596256 -0.154132 60.378841 -2.833541 3.622732 -4.855608 10.370563 0.035330 -0.181238 0.035161 -1.227894 -18.858807 8.855692 20.652605 77.823561 21.290976 -0.091651 -12.034792 -2.982172 0.242281 0.655071 0.125643
-83.798060 61.972110 17.839287 172.686881 -45.233445 -1.479489 4.516221 26.289034 1.651964 0.678242 4.413898 0.233057 1.084142 6.985824 0.377302 3.601453 21.414626 1.649776 4.523732 11.414278 2.694696 7.510202 -14.608830 3.190636 5.952158 3.233860 3.978344 -0.055612 -8.937482 -20.199265 -107.231268 -52.234259 145.844821 -1.760600 -2.186083 -5.499791 -8.335009 0.542590 -0.276291 -2.942308 -7.782627 19.490426 133.005895 -62.937375 -160.243230 3.015724 -4.223992 -3.530643 2.218030 -22.105378 -2.624749 -0.148630 60.401707 -2.833836 3.613771 -4.870029 10.372635 0.035518 -0.181134 0.034771 -1.231230 -18.885970 8.834785 20.627709 77.830269 21.265414 -0.109339 -12.051757 -2.989555 0.267427 0.664614 0.132322
-83.797645 61.971129 17.832007 172.696847 -45.193656 -1.470020 4.504630 26.272656 1.644671 0.673762 4.407102 0.233640 1.083145 6.976113 0.370660 3.595572 21.405463 1.673050 4.503630 11.427094 2.672220 7.421121 -14.576846 3.221848 5.992925 3.185235 3.985208 0.120172 -8.891751 -20.236146 -106.928550 -52.310779 145.710745 -1.465243 -1.917197 -4.862303 -8.350509 0.469320 -0.307975 -3.129687 -7.713257 19.529161 131.672744 -62.854514 -159.419544 2.974650 -4.192702 -3.891624 2.229685 -22.148254 -2.642633 -0.164431 60.421336 -2.846362 3.605803 -4.879799 10.372472 0.035851 -0.181264 0.034649 -1.231029 -18.923284 8.825107 20.596401 77.834378 21.234250 -0.115762 -12.057590 -2.991778 0.273140 0.666099 0.135505
-83.795768 61.971087 17.824174 172.698401 -45.161954 -1.462633 4.496834 26.259791 1.644913 0.673272 4.392388 0.223998 1.073809 6.978998 0.397075 3.589006 21.398391 1.647093 4.457940 11.441244 2.686830 7.363606 -14.543719 3.229436 6.039735 3.128219 4.021421 0.301590 -8.843706 -20.272881 -106.694257 -52.395623 145.609398 -1.177607 -1.655218 -4.255117 -8.348706 0.461011 -0.317466 -3.342875 -7.705169 19.564219 130.467246 -62.781997 -158.661789 2.920757 -4.165445 -4.272835 2.234283 -22.184513 -2.650593 -0.175264 60.440070 -2.859184 3.611213 -4.881582 10.373983 0.036188 -0.183240 0.028870 -1.229036 -18.953168 8.821173 20.595422 77.841964 21.232981 -0.111685 -12.061166 -2.992993 0.261918 0.661602 0.134434
-83.794778 61.970575 17.816966 172.702984 -45.127035 -1.452672 4.481564 26.243432 1.639986 0.670782 4.386796 0.223758 1.072300 6.963691 0.400648 3.580701 21.400124 1.634209 4.415630 11.450438 2.701440 7.308377 -14.505651 3.231898 6.083761 3.078577 4.056832 0.502708 -8.801976 -20.297788 -106.518245 -52.503086 145.527117 -0.914106 -1.399106 -3.666689 -8.353850 0.416125 -0.334615 -3.560734 -7.662259 19.604233 129.400728 -62.722260 -157.980629 2.873104 -4.140295 -4.671270 2.235887 -22.221868 -2.664640 -0.182511 60.456528 -2.868219 3.612589 -4.892724 10.374182 0.036078 -0.180151 0.026341 -1.228284 -18.985781 8.810818 20.606599 77.844790 21.243796 -0.110181 -12.064578 -2.996368 0.275593 0.663777 0.132231
-83.793508 61.968719 17.811611 172.693935 -45.081837 -1.436582 4.477225 26.218034 1.654590 0.668042 4.373926 0.212427 1.071744 6.952209 0.394609 3.571497 21.388867 1.644102 4.392498 11.469815 2.688744 7.259209 -14.474524 3.237285 6.108348 3.071345 4.055537 0.736895 -8.785647 -20.291449 -106.363181 -52.625255 145.432997 -0.663163 -1.137258 -3.083444 -8.382870 0.323785 -0.378774 -3.763861 -7.563037 19.646312 128.489136 -62.675884 -157.407607 2.842881 -4.115092 -5.072878 2.245558 -22.271827 -2.676253 -0.184738 60.471637 -2.871171 3.613334 -4.902093 10.372755 0.036636 -0.175554 0.024123 -1.218432 -19.027760 8.808536 20.606661 77.848671 21.240174 -0.115261 -12.079340 -2.994985 0.279363 0.673368 0.132200
